<svg width="1200" height="660" viewBox="0 0 1200 660" fill="none" xmlns="http://www.w3.org/2000/svg" role="img" aria-labelledby="title desc">
  <title id="title">Live GitHub status for siiddhantt</title>
  <desc id="desc">A Windows 95 Explorer style view of repositories, merged pull requests, featured work, and recent open-source activity</desc>
  <defs>
    <filter id="shadow" x="-10%" y="-10%" width="120%" height="125%">
      <feDropShadow dx="7" dy="7" stdDeviation="0" flood-color="#000000" flood-opacity="0.35"/>
    </filter>
    <style>
      .ui { font-family: Tahoma, MS Sans Serif, Arial, sans-serif; }
      .mono { font-family: Courier New, Liberation Mono, monospace; }
      .pixel { shape-rendering: crispEdges; }
    </style>
  </defs>
  <rect width="1200" height="660" fill="#063f3f"/>
  <g filter="url(#shadow)">
  <rect x="14" y="14" width="1172" height="632" fill="#303034" class="pixel"/>
  <path d="M15 645V15H1185" stroke="#68686f" stroke-width="3" fill="none" class="pixel"/>
  <path d="M1185 15V645H15" stroke="#09090b" stroke-width="3" fill="none" class="pixel"/>
  </g>
  <rect x="21" y="21" width="1158" height="38" fill="#24205f" class="pixel"/>
  <rect x="29" y="28" width="19" height="15" fill="#45454a" stroke="#ffffff" class="pixel"/>
  <rect x="34" y="44" width="19" height="5" fill="#45454a" stroke="#ffffff" class="pixel"/>
  <text x="61" y="48" fill="#ffffff" class="ui" font-size="20" font-weight="700">GitHub Explorer - C:\Users\Siddhant</text>
  <rect x="1080" y="26" width="28" height="27" fill="#303034" class="pixel"/>
  <path d="M1081 52V27H1107" stroke="#68686f" stroke-width="3" fill="none" class="pixel"/>
  <path d="M1107 27V52H1081" stroke="#09090b" stroke-width="3" fill="none" class="pixel"/>
  <rect x="1112" y="26" width="28" height="27" fill="#303034" class="pixel"/>
  <path d="M1113 52V27H1139" stroke="#68686f" stroke-width="3" fill="none" class="pixel"/>
  <path d="M1139 27V52H1113" stroke="#09090b" stroke-width="3" fill="none" class="pixel"/>
  <rect x="1144" y="26" width="28" height="27" fill="#303034" class="pixel"/>
  <path d="M1145 52V27H1171" stroke="#68686f" stroke-width="3" fill="none" class="pixel"/>
  <path d="M1171 27V52H1145" stroke="#09090b" stroke-width="3" fill="none" class="pixel"/>
  <path d="M1087 45H1101" stroke="#f4f4f4" stroke-width="3" class="pixel"/>
  <rect x="1119" y="33" width="14" height="12" fill="none" stroke="#f4f4f4" stroke-width="2" class="pixel"/>
  <path d="M1151 33L1165 46M1165 33L1151 46" stroke="#f4f4f4" stroke-width="2" class="pixel"/>
  <text x="31" y="87" fill="#f4f4f4" class="ui" font-size="17"><tspan text-decoration="underline">F</tspan>ile</text>
  <text x="88" y="87" fill="#f4f4f4" class="ui" font-size="17"><tspan text-decoration="underline">E</tspan>dit</text>
  <text x="143" y="87" fill="#f4f4f4" class="ui" font-size="17"><tspan text-decoration="underline">V</tspan>iew</text>
  <text x="207" y="87" fill="#f4f4f4" class="ui" font-size="17"><tspan text-decoration="underline">G</tspan>o</text>
  <text x="254" y="87" fill="#f4f4f4" class="ui" font-size="17"><tspan text-decoration="underline">H</tspan>elp</text>
  <line x1="21" y1="96" x2="1179" y2="96" stroke="#09090b"/>
  <rect x="28" y="105" width="92" height="40" fill="#303034" class="pixel"/>
  <path d="M29 144V106H119" stroke="#68686f" stroke-width="3" fill="none" class="pixel"/>
  <path d="M119 106V144H29" stroke="#09090b" stroke-width="3" fill="none" class="pixel"/>
  <path d="M42 125H59M42 125L51 116M42 125L51 134" stroke="#f4f4f4" stroke-width="3" fill="none" class="pixel"/>
  <text x="67" y="132" fill="#f4f4f4" class="ui" font-size="16">Back</text>
  <rect x="126" y="105" width="92" height="40" fill="#303034" class="pixel"/>
  <path d="M127 144V106H217" stroke="#68686f" stroke-width="3" fill="none" class="pixel"/>
  <path d="M217 106V144H127" stroke="#09090b" stroke-width="3" fill="none" class="pixel"/>
  <path d="M148 135V116M148 116L140 124M148 116L156 124" stroke="#f4f4f4" stroke-width="3" fill="none" class="pixel"/>
  <text x="165" y="132" fill="#f4f4f4" class="ui" font-size="16">Up</text>
  <rect x="224" y="105" width="92" height="40" fill="#303034" class="pixel"/>
  <path d="M225 144V106H315" stroke="#68686f" stroke-width="3" fill="none" class="pixel"/>
  <path d="M315 106V144H225" stroke="#09090b" stroke-width="3" fill="none" class="pixel"/>
  <path d="M237 119H252V134H237ZM240 116H255V131" stroke="#f4f4f4" stroke-width="2" fill="none" class="pixel"/>
  <text x="263" y="132" fill="#f4f4f4" class="ui" font-size="16">Open</text>
  <line x1="328" y1="106" x2="328" y2="144" stroke="#09090b"/>
  <line x1="331" y1="106" x2="331" y2="144" stroke="#68686f"/>
  <g class="pixel">
    <rect x="353" y="113" width="11" height="6" fill="#f0c75e" stroke="#987526"/>
    <rect x="350" y="118" width="25" height="18" fill="#f0c75e" stroke="#987526"/>
    <path d="M352 121H373" stroke="#68686f"/>
  </g>
  <text x="386" y="133" fill="#f4f4f4" class="ui" font-size="17">Featured Work</text>
  <text x="30" y="179" fill="#f4f4f4" class="ui" font-size="17">Address</text>
  <rect x="96" y="153" width="1075" height="36" fill="#121214" class="pixel"/>
  <path d="M97 188V154H1170" stroke="#09090b" stroke-width="3" fill="none" class="pixel"/>
  <path d="M1170 154V188H97" stroke="#68686f" stroke-width="3" fill="none" class="pixel"/>
  <g class="pixel">
    <rect x="108" y="160" width="11" height="6" fill="#f0c75e" stroke="#987526"/>
    <rect x="105" y="165" width="25" height="18" fill="#f0c75e" stroke="#987526"/>
    <path d="M107 168H128" stroke="#68686f"/>
  </g>
  <text x="140" y="179" fill="#f4f4f4" class="mono" font-size="17">github://siiddhantt/featured-work</text>
  <rect x="25" y="196" width="335" height="382" fill="#121214" class="pixel"/>
  <path d="M26 577V197H359" stroke="#09090b" stroke-width="3" fill="none" class="pixel"/>
  <path d="M359 197V577H26" stroke="#68686f" stroke-width="3" fill="none" class="pixel"/>
  <rect x="29" y="200" width="327" height="36" fill="#303034" class="pixel"/>
  <path d="M30 235V201H355" stroke="#68686f" stroke-width="3" fill="none" class="pixel"/>
  <path d="M355 201V235H30" stroke="#09090b" stroke-width="3" fill="none" class="pixel"/>
  <text x="43" y="225" fill="#f4f4f4" class="ui" font-size="18" font-weight="700">Folders</text>
  <rect x="34" y="246" width="317" height="42" fill="#35308a" class="pixel"/>
  <rect x="47" y="254" width="24" height="18" fill="#45454a" stroke="#ffffff" class="pixel"/>
  <rect x="53" y="273" width="24" height="5" fill="#45454a" stroke="#ffffff" class="pixel"/>
  <text x="89" y="276" fill="#ffffff" class="ui" font-size="19" font-weight="700">My GitHub</text>
  <text x="48" y="326" fill="#b8a6ff" class="ui" font-size="24" font-weight="700">42</text>
  <text x="102" y="326" fill="#f4f4f4" class="ui" font-size="18">Public repositories</text>
  <text x="48" y="368" fill="#b8a6ff" class="ui" font-size="24" font-weight="700">108</text>
  <text x="102" y="368" fill="#f4f4f4" class="ui" font-size="18">Merged pull requests</text>
  <text x="48" y="410" fill="#b8a6ff" class="ui" font-size="24" font-weight="700">20</text>
  <text x="102" y="410" fill="#f4f4f4" class="ui" font-size="18">External codebases</text>
  <line x1="43" y1="435" x2="341" y2="435" stroke="#45454a"/>
  <text x="46" y="463" fill="#f4f4f4" class="ui" font-size="17" font-weight="700">Commit activity</text>
  <text x="338" y="463" text-anchor="end" fill="#b8b8bd" class="ui" font-size="13">public / 6 months</text>
  <rect x="44" y="474" width="298" height="77" fill="#121214" class="pixel"/>
  <path d="M45 550V475H341" stroke="#09090b" stroke-width="3" fill="none" class="pixel"/>
  <path d="M341 475V550H45" stroke="#68686f" stroke-width="3" fill="none" class="pixel"/>
  <line x1="49" y1="490" x2="337" y2="490" stroke="#45454a" stroke-opacity="0.55" class="pixel"/>
  <line x1="49" y1="507" x2="337" y2="507" stroke="#45454a" stroke-opacity="0.55" class="pixel"/>
  <line x1="49" y1="524" x2="337" y2="524" stroke="#45454a" stroke-opacity="0.55" class="pixel"/>
  <line x1="49" y1="541" x2="337" y2="541" stroke="#45454a" stroke-opacity="0.55" class="pixel"/>
  <line x1="60" y1="478" x2="60" y2="546" stroke="#45454a" stroke-opacity="0.4" class="pixel"/>
  <line x1="113" y1="478" x2="113" y2="546" stroke="#45454a" stroke-opacity="0.4" class="pixel"/>
  <line x1="166" y1="478" x2="166" y2="546" stroke="#45454a" stroke-opacity="0.4" class="pixel"/>
  <line x1="219" y1="478" x2="219" y2="546" stroke="#45454a" stroke-opacity="0.4" class="pixel"/>
  <line x1="272" y1="478" x2="272" y2="546" stroke="#45454a" stroke-opacity="0.4" class="pixel"/>
  <line x1="325" y1="478" x2="325" y2="546" stroke="#45454a" stroke-opacity="0.4" class="pixel"/>
  <polyline points="60,529 113,537 166,491 219,530 272,511 325,540" fill="none" stroke="#43d17a" stroke-width="3" stroke-linejoin="miter" stroke-linecap="square" class="pixel"/>
  <rect x="57" y="526" width="7" height="7" fill="#43d17a" class="pixel"/>
  <text x="60" y="522" text-anchor="middle" fill="#f4f4f4" class="ui" font-size="11">11</text>
  <text x="60" y="567" text-anchor="middle" fill="#b8b8bd" class="ui" font-size="12">Mar</text>
  <rect x="110" y="534" width="7" height="7" fill="#43d17a" class="pixel"/>
  <text x="113" y="530" text-anchor="middle" fill="#f4f4f4" class="ui" font-size="11">3</text>
  <text x="113" y="567" text-anchor="middle" fill="#b8b8bd" class="ui" font-size="12">Apr</text>
  <rect x="163" y="488" width="7" height="7" fill="#43d17a" class="pixel"/>
  <text x="166" y="486" text-anchor="middle" fill="#f4f4f4" class="ui" font-size="11">47</text>
  <text x="166" y="567" text-anchor="middle" fill="#b8b8bd" class="ui" font-size="12">May</text>
  <rect x="216" y="527" width="7" height="7" fill="#43d17a" class="pixel"/>
  <text x="219" y="523" text-anchor="middle" fill="#f4f4f4" class="ui" font-size="11">10</text>
  <text x="219" y="567" text-anchor="middle" fill="#b8b8bd" class="ui" font-size="12">Jun</text>
  <rect x="269" y="508" width="7" height="7" fill="#43d17a" class="pixel"/>
  <text x="272" y="504" text-anchor="middle" fill="#f4f4f4" class="ui" font-size="11">28</text>
  <text x="272" y="567" text-anchor="middle" fill="#b8b8bd" class="ui" font-size="12">Jul</text>
  <rect x="322" y="537" width="7" height="7" fill="#43d17a" class="pixel"/>
  <text x="325" y="533" text-anchor="middle" fill="#f4f4f4" class="ui" font-size="11">0</text>
  <text x="325" y="567" text-anchor="middle" fill="#b8b8bd" class="ui" font-size="12">Aug</text>
  <rect x="370" y="196" width="809" height="382" fill="#121214" class="pixel"/>
  <path d="M371 577V197H1178" stroke="#09090b" stroke-width="3" fill="none" class="pixel"/>
  <path d="M1178 197V577H371" stroke="#68686f" stroke-width="3" fill="none" class="pixel"/>
  <rect x="374" y="200" width="398" height="36" fill="#303034" class="pixel"/>
  <path d="M375 235V201H771" stroke="#68686f" stroke-width="3" fill="none" class="pixel"/>
  <path d="M771 201V235H375" stroke="#09090b" stroke-width="3" fill="none" class="pixel"/>
  <rect x="772" y="200" width="233" height="36" fill="#303034" class="pixel"/>
  <path d="M773 235V201H1004" stroke="#68686f" stroke-width="3" fill="none" class="pixel"/>
  <path d="M1004 201V235H773" stroke="#09090b" stroke-width="3" fill="none" class="pixel"/>
  <rect x="1005" y="200" width="170" height="36" fill="#303034" class="pixel"/>
  <path d="M1006 235V201H1174" stroke="#68686f" stroke-width="3" fill="none" class="pixel"/>
  <path d="M1174 201V235H1006" stroke="#09090b" stroke-width="3" fill="none" class="pixel"/>
  <text x="414" y="225" fill="#f4f4f4" class="ui" font-size="17">Name</text>
  <text x="790" y="225" fill="#f4f4f4" class="ui" font-size="17">Focus</text>
  <text x="1021" y="225" fill="#f4f4f4" class="ui" font-size="17">Merged</text>
  <rect x="375" y="240" width="799" height="47" fill="#35308a" class="pixel"/>
  <g class="pixel">
    <rect x="390" y="251" width="11" height="6" fill="#f0c75e" stroke="#987526"/>
    <rect x="387" y="256" width="25" height="18" fill="#f0c75e" stroke="#987526"/>
    <path d="M389 259H410" stroke="#68686f"/>
  </g>
  <text x="424" y="271" fill="#ffffff" class="ui" font-size="19" font-weight="700">DocsGPT</text>
  <text x="790" y="271" fill="#ffffff" class="ui" font-size="17">Product and AI platform</text>
  <text x="1021" y="271" fill="#ffffff" class="ui" font-size="16">75 PRs</text>
  <g class="pixel">
    <rect x="390" y="300" width="11" height="6" fill="#f0c75e" stroke="#987526"/>
    <rect x="387" y="305" width="25" height="18" fill="#f0c75e" stroke="#987526"/>
    <path d="M389 308H410" stroke="#68686f"/>
  </g>
  <text x="424" y="320" fill="#f4f4f4" class="ui" font-size="19" font-weight="700">Coral</text>
  <text x="790" y="320" fill="#f4f4f4" class="ui" font-size="17">Data source integrations</text>
  <text x="1021" y="320" fill="#f4f4f4" class="ui" font-size="16">6 PRs</text>
  <g class="pixel">
    <rect x="390" y="349" width="11" height="6" fill="#f0c75e" stroke="#987526"/>
    <rect x="387" y="354" width="25" height="18" fill="#f0c75e" stroke="#987526"/>
    <path d="M389 357H410" stroke="#68686f"/>
  </g>
  <text x="424" y="369" fill="#f4f4f4" class="ui" font-size="19" font-weight="700">OLake</text>
  <text x="790" y="369" fill="#f4f4f4" class="ui" font-size="17">Database connectors</text>
  <text x="1021" y="369" fill="#f4f4f4" class="ui" font-size="16">3 PRs</text>
  <g class="pixel">
    <rect x="390" y="398" width="11" height="6" fill="#f0c75e" stroke="#987526"/>
    <rect x="387" y="403" width="25" height="18" fill="#f0c75e" stroke="#987526"/>
    <path d="M389 406H410" stroke="#68686f"/>
  </g>
  <text x="424" y="418" fill="#f4f4f4" class="ui" font-size="19" font-weight="700">OpenFGA</text>
  <text x="790" y="418" fill="#f4f4f4" class="ui" font-size="17">Concurrency and filtering</text>
  <text x="1021" y="418" fill="#f4f4f4" class="ui" font-size="16">2 PRs</text>
  <rect x="380" y="447" width="789" height="121" fill="#121214" class="pixel"/>
  <path d="M381 567V448H1168" stroke="#09090b" stroke-width="3" fill="none" class="pixel"/>
  <path d="M1168 448V567H381" stroke="#68686f" stroke-width="3" fill="none" class="pixel"/>
  <text x="396" y="472" fill="#b8b8bd" class="ui" font-size="14" font-weight="700">Latest merged patch</text>
  <text x="396" y="499" fill="#b8a6ff" class="ui" font-size="19" font-weight="700">topoteretes/cognee #4244</text>
  <text x="1148" y="499" text-anchor="end" fill="#b8b8bd" class="ui" font-size="14">Jul 28, 2026</text>
  <text x="396" y="526" fill="#f4f4f4" class="ui" font-size="16">fix(storage): serialize date values in JSONEncoder</text>
  <rect x="21" y="585" width="720" height="52" fill="#303034" class="pixel"/>
  <path d="M22 636V586H740" stroke="#09090b" stroke-width="3" fill="none" class="pixel"/>
  <path d="M740 586V636H22" stroke="#68686f" stroke-width="3" fill="none" class="pixel"/>
  <rect x="746" y="585" width="188" height="52" fill="#303034" class="pixel"/>
  <path d="M747 636V586H933" stroke="#09090b" stroke-width="3" fill="none" class="pixel"/>
  <path d="M933 586V636H747" stroke="#68686f" stroke-width="3" fill="none" class="pixel"/>
  <rect x="939" y="585" width="240" height="52" fill="#303034" class="pixel"/>
  <path d="M940 636V586H1178" stroke="#09090b" stroke-width="3" fill="none" class="pixel"/>
  <path d="M1178 586V636H940" stroke="#68686f" stroke-width="3" fill="none" class="pixel"/>
  <text x="36" y="618" fill="#f4f4f4" class="ui" font-size="16">4 featured repositories  |  86 merged pull requests</text>
  <rect x="762" y="600" width="11" height="10" fill="#b8a6ff" class="pixel"/>
  <path d="M757 620V613H778V620" fill="#b8a6ff" class="pixel"/>
  <text x="788" y="618" fill="#f4f4f4" class="ui" font-size="16">24 followers</text>
  <text x="958" y="618" fill="#f4f4f4" class="ui" font-size="16">github.com/siiddhantt</text>
</svg>
